<?xml version="1.0" standalone="no"?>
<!DOCTYPE svg PUBLIC "-//W3C//DTD SVG 20010904//EN"
 "http://www.w3.org/TR/2001/REC-SVG-20010904/DTD/svg10.dtd">
<svg version="1.0" xmlns="http://www.w3.org/2000/svg"
 width="1280.000000pt" height="1230.000000pt" viewBox="0 0 1280.000000 1230.000000"
 preserveAspectRatio="xMidYMid meet">
<g transform="translate(0.000000,1230.000000) scale(0.100000,-0.100000)"
fill="#888888" stroke="none" stroke-width="2">
<path d="M12460 12191 c-137 -105 -1235 -921 -1274 -946 -26 -17 -30 -17 -154
19 -787 224 -1586 184 -2201 -110 l-115 -55 -32 28 c-18 15 -81 71 -140 123
-483 428 -1040 741 -1427 801 -195 30 -272 -71 -246 -323 13 -129 40 -260 138
-668 209 -872 254 -1263 213 -1875 -26 -402 30 -727 169 -970 49 -88 160 -211
262 -292 127 -102 133 -121 60 -180 -326 -263 -837 -946 -1275 -1703 -464
-804 -889 -1741 -1208 -2665 -62 -180 -88 -230 -154 -297 -257 -262 -889 -399
-2056 -448 -135 -5 -589 -14 -1010 -20 -421 -5 -882 -15 -1025 -20 -588 -23
-880 -79 -959 -182 -32 -43 -32 -53 2 -103 136 -197 909 -321 2667 -430 138
-8 536 -31 885 -50 1642 -91 2050 -138 2050 -235 0 -11 -33 -52 -79 -97 -262
-259 -267 -517 -15 -741 109 -98 204 -126 424 -125 212 1 482 47 836 144 214
58 302 90 367 133 146 97 191 231 161 480 -28 233 -29 255 -10 262 9 3 30 -3
48 -14 18 -11 76 -45 128 -77 194 -118 422 -203 682 -255 32 -6 65 -18 73 -26
25 -25 17 -89 -29 -243 -69 -231 -79 -286 -74 -420 4 -106 7 -123 36 -186 42
-89 88 -144 167 -200 118 -85 272 -141 494 -179 212 -37 277 -46 332 -46 58 0
250 33 322 55 159 48 304 171 376 316 57 116 81 218 88 370 5 114 4 132 -18
200 -20 63 -24 94 -24 209 1 349 162 629 349 608 86 -11 106 -27 206 -169 353
-500 716 -866 1005 -1012 88 -44 272 -102 390 -122 210 -37 486 -14 664 56
154 59 213 115 253 240 22 68 22 69 4 146 -44 189 -144 357 -322 543 -134 140
-362 596 -463 925 -122 400 -172 752 -172 1220 0 474 59 906 197 1445 88 343
124 615 124 942 0 416 -63 661 -260 1002 -100 174 -115 226 -87 304 7 18 61
98 121 178 312 419 476 788 521 1173 24 204 16 363 -34 696 -44 296 -39 362
40 496 120 204 169 515 185 1194 10 389 -26 1229 -53 1256 -5 5 -60 -32 -123
-80z"/>
</g>
</svg>
